<svg xmlns="http://www.w3.org/2000/svg" version="1.0" viewBox="0 0 1024.000000 1024.000000" style="&#10; height: 24px;&#10; width: 24px;&#10;"><defs xmlns="http://www.w3.org/2000/svg"> <linearGradient id="grad1" x1="0%" y1="0%" x2="100%" y2="0%"> <stop offset="0%" style="stop-color: #2989ff;stop-opacity:1;"/> <stop offset="100%" style="stop-color: #63a8ff;stop-opacity:1;"/> </linearGradient> </defs><g transform="translate(0.000000,1024.000000) scale(0.100000,-0.100000)" fill="url(#grad1)" stroke="none"><path d="M1154 9614 c-298 -50 -610 -224 -805 -449 -117 -135 -206 -293 -264 -468 -71 -215 -66 38 -63 -3382 l3 -3080 27 -101 c110 -412 359 -728 714 -907 91 -46 222 -92 342 -119 l97 -22 2824 -3 2823 -3 42 -34 c58 -48 215 -149 310 -201 165 -89 373 -163 582 -206 127 -26 464 -37 610 -20 410 48 783 210 1104 479 387 323 646 806 710 1322 15 126 12 412 -6 541 -67 486 -323 960 -673 1251 -297 247 -665 421 -1011 478 -36 6 -75 13 -87 15 l-23 5 0 1843 c0 2024 3 1924 -61 2125 -136 427 -470 763 -889 892 -208 64 21 60 -3249 59 -2468 -1 -2990 -3 -3057 -15z m6026 -518 c320 -59 576 -290 677 -611 l28 -90 3 -1572 c1 -865 -1 -1573 -4 -1573 -4 0 -332 323 -729 718 -556 554 -733 724 -771 742 -66 32 -160 33 -228 2 -40 -18 -246 -220 -1144 -1123 l-1095 -1100 -761 759 c-621 620 -768 762 -801 773 -63 21 -162 16 -213 -10 -30 -15 -217 -197 -570 -554 -289 -293 -640 -647 -779 -787 l-253 -255 2 1990 3 1990 28 90 c100 319 354 550 672 610 106 20 5825 21 5935 1z m-192 -3707 l703 -706 -78 -22 c-133 -39 -268 -88 -334 -121 -114 -57 -378 -220 -452 -279 -115 -92 -293 -291 -394 -441 -309 -462 -420 -1014 -312 -1553 31 -157 124 -429 189 -555 l58 -112 -2541 3 c-2345 2 -2547 4 -2611 20 -331 81 -557 299 -649 626 -21 74 -21 97 -25 746 l-3 670 866 865 865 865 757 -756 c828 -825 775 -779 895 -779 30 0 77 7 104 16 45 15 133 100 1148 1120 604 608 1102 1103 1105 1102 3 -2 322 -321 709 -709z m1460 -1228 c540 -116 982 -499 1147 -994 180 -540 66 -1092 -314 -1526 -189 -217 -486 -393 -776 -459 -419 -96 -846 -19 -1200 216 -122 81 -189 140 -316 279 -151 165 -255 346 -304 528 -49 180 -54 209 -65 333 -23 279 30 545 160 807 77 154 171 285 291 405 230 230 510 370 848 425 123 20 406 13 529 -14z"/><path d="M3775 7404 c-11 -2 -45 -9 -75 -15 -30 -6 -97 -31 -148 -55 -167 -80 -300 -233 -358 -410 -26 -81 -29 -101 -29 -224 1 -121 4 -143 29 -215 97 -280 331 -463 619 -482 216 -14 412 61 559 213 210 219 257 527 121 804 -39 79 -60 109 -132 180 -136 135 -278 198 -466 205 -55 2 -109 2 -120 -1z"/><path d="M8044 3777 c-47 -18 -98 -56 -123 -93 -48 -69 -50 -90 -51 -426 l0 -317 -332 -3 c-321 -3 -334 -4 -374 -25 -95 -51 -148 -136 -148 -238 0 -80 18 -129 68 -183 78 -85 85 -87 458 -90 l327 -3 3 -332 c3 -318 4 -334 25 -372 48 -89 138 -144 234 -145 111 0 197 50 243 142 l26 52 0 327 0 328 333 3 332 3 54 30 c100 55 148 145 138 261 -6 74 -38 137 -94 184 -68 55 -103 60 -450 60 l-313 0 0 328 0 328 -26 52 c-46 93 -127 142 -234 141 -36 0 -79 -6 -96 -12z"/></g></svg>