<svg xmlns="http://www.w3.org/2000/svg" width="56" height="56" viewBox="0 0 56 56">
    <g fill="none" fill-rule="evenodd">
        <path d="M0 0h56v56H0z"></path>
        <path fill="#000" fill-rule="nonzero" d="M38 16H18l2.81-4.22A4 4 0 0 1 24.14 10h7.72a4 4 0 0 1 3.33 1.78L38 16z" opacity=".2"></path>
        <path fill="#3C4258" fill-rule="nonzero" d="M48 16H14v-2H8v2a4 4 0 0 0-4 4v22a4 4 0 0 0 4 4h40a4 4 0 0 0 4-4V20a4 4 0 0 0-4-4zM28 42c-6.627 0-12-5.373-12-12s5.373-12 12-12 12 5.373 12 12a12 12 0 0 1-12 12zm20-18h-6v-4h6v4z" opacity=".8"></path>
        <circle cx="28" cy="30" r="7" fill="#3C4258" fill-rule="nonzero" opacity=".8"></circle>
    </g>
</svg>