<svg xmlns="http://www.w3.org/2000/svg" viewBox="0 0 110 75"><g style="fill: none; fill-rule: evenodd; stroke: none; stroke-width: 1;"><g><g><polygon points="64 75 110 75 110 0 64 0" style="fill: rgb(52, 60, 164);"></polygon></g><polygon points="7 14 57 14 57 7 7 7" style="fill: rgb(223, 224, 230); fill-opacity: 0.6;"></polygon><polygon points="7 27 57 27 57 20 7 20" style="fill: rgb(223, 224, 230); fill-opacity: 0.6;"></polygon><polygon points="7 68 57 68 57 34 7 34" style="fill: rgb(223, 224, 230); fill-opacity: 0.6;"></polygon><path d="M85.06,48 L85.06,38.92 L82,38.92 L82,35.213 L85.06,35.213 L85.06,32.1 C85.06,29.835 86.895, 28 89.159,28 L92.359,28 L92.359,31.333 L90.07,31.333 C89.35,31.333 88.767,31.917 88.767,32.636 L88.767,35.213 L92.301,35.213 L91.813,38.92 L88.767,38.92 L88.767,48" style="fill: rgb(255, 255, 255);"></path></g></g></svg>