<svg xmlns="http://www.w3.org/2000/svg" viewBox="0 0 110 46"><g style="fill: none; fill-rule: evenodd; stroke: none; stroke-width: 1;"><g><g><polygon points="64 46 110 46 110 0 64 0" style="fill: rgb(52, 60, 164);"></polygon></g><polygon points="7 14 57 14 57 7 7 7" style="fill: rgb(223, 224, 230); fill-opacity: 0.6;"></polygon><polygon points="7 27 47 27 47 20 7 20" style="fill: rgb(223, 224, 230); fill-opacity: 0.6;"></polygon><path d="M85.06,33 L85.06,23.92 L82,23.92 L82,20.213 L85.06,20.213 L85.06,17.1 C85.06,14.835 86.895, 13 89.159,13 L92.359,13 L92.359,16.333 L90.07,16.333 C89.35,16.333 88.767,16.917 88.767,17.636 L88.767,20.213 L92.301,20.213 L91.813,23.92 L88.767,23.92 L88.767,33" style="fill: rgb(255, 255, 255);"></path></g></g></svg>