<svg xmlns="http://www.w3.org/2000/svg" viewBox="0 0 50 50"><g style="fill: none; fill-rule: evenodd; stroke: none; stroke-width: 1;"><g><g><path d="M6,6.9968754 C6,6.44631632 6.45323029,6 6.9968754,6 L43.0031246,6 C43.5536837,6 44, 6.45323029 44,6.9968754 L44,43.0031246 C44,43.5536837 43.5467697,44 43.0031246,44 L6.9968754,44 C6.44631632,44 6,43.5467697 6,43.0031246 L6,6.9968754 Z M12,35.8046371 C12, 31.4139114 20.6666667,29 25.0006094,29 C29.3333333,29 38,31.4139114 38,35.8046371 L38, 38 L12,38 L12,35.8046371 Z M32,18.5006094 C32,22.1835568 29.1835568,25 25.5006094,25 C21.8164432,25 19,22.1835568 19,18.5006094 C19,14.8176619 21.8164432,12 25.5006094,12 C29.1835568,12 32,14.8176619 32,18.5006094 Z" style="fill: rgb(223, 224, 230); fill-opacity: 0.6;"></path></g></g></g></svg>