<svg xmlns="http://www.w3.org/2000/svg" viewBox="0 0 120 40"><defs><rect x="0" y="0" width="120" height="40" rx="1"></rect><polygon points="4.3268069 0.042 0 0.042 0 4.35926899 4.3268069 4.35926899 4.3268069 0.042"></polygon></defs><g style="fill: none; fill-rule: evenodd; stroke: none; stroke-width: 1;"><g><g><polygon points="80 40 120 40 120 0 80 0" style="fill: rgb(36, 100, 208);"></polygon><g><g transform="translate(91.000000, 10.000000)"><g style="fill: none; stroke-width: 1;"><path d="M2.1738,0.0417 C3.3548,0.0427 4.3298,1.0187 4.3268,2.2057 C4.3238, 3.4487 3.2928,4.3857 2.1588,4.3587 C1.0098,4.3817 -0.0002,3.4217 -0.0002, 2.1977 C-0.0002,1.0097 0.9778,0.0407 2.1738,0.0417" style="fill: rgb(255, 255, 255);"></path></g><path d="M3.36038699,18 L0.639613007,18 C0.287019618,18 0,17.7337115 0, 17.4043547 L0,6.59564528 C0,6.26628848 0.287019618,6 0.639613007,6 L3.36038699, 6 C3.71405536,6 4,6.26628848 4,6.59564528 L4,17.4043547 C4,17.7337115 3.71405536, 18 3.36038699,18" style="fill: rgb(255, 255, 255);"></path><path d="M18,10.0003253 C18,7.79082628 16.1054805,6 13.7680461,6 L13.0979954,6 C11.81984, 6 10.6903553,6.60312297 10.0099802,7.52537411 C9.93564484,7.6258946 9.86750409, 7.7303188 9.80452551,7.83767079 C9.78284436,7.83474301 9.77045513, 7.83279115 9.7694227,7.83376708 L9.7694227,6.5396877 C9.7694227, 6.40696161 9.65585477,6.2986337 9.51441108,6.2986337 L6.25397918, 6.2986337 C6.11356793,6.2986337 6,6.40696161 6,6.5396877 L6,17.7569941 C6, 17.8897202 6.11356793,17.9980481 6.25397918,17.9980481 L9.58564914, 17.9990241 C9.7260604,17.9990241 9.84066076,17.8906962 9.84066076, 17.7579701 L9.84066076,11.2778139 C9.84066076,10.1574496 10.7853394, 9.22739102 11.9705756,9.21470397 C12.5755829,9.20787248 13.1238062, 9.43721535 13.5192291,9.81099545 C13.9094898,10.1798959 14.1500473, 10.6893299 14.1500473,11.2514639 L14.1500473,17.758946 C14.1500473, 17.8916721 14.2646477,17.9990241 14.4050589,18 L17.7449884,18 C17.8853996, 18 18,17.892648 18,17.758946 L18,10.0003253 Z" style="fill: rgb(255, 255, 255);"></path></g></g></g><polygon points="7 14 73 14 73 7 7 7" style="fill: rgb(223, 224, 230); fill-opacity: 0.6;"></polygon><polygon points="7 28 55 28 55 21 7 21" style="fill: rgb(223, 224, 230); fill-opacity: 0.6;"></polygon></g></g></svg>