<svg xmlns="http://www.w3.org/2000/svg" x="0px" y="0px" viewBox="0 0 100 54"><rect width="100" height="54" style="fill-rule: evenodd; clip-rule: evenodd; fill: rgb(255, 255, 255);"></rect><defs><filter id="Adobe_OpacityMaskFilter-businessCard" filterUnits="userSpaceOnUse" x="61.1" y="0" width="38.9" height="54"><feColorMatrix type="matrix" values="1 0 0 0 0  0 1 0 0 0  0 0 1 0 0  0 0 0 1 0"></feColorMatrix></filter></defs><mask maskUnits="userSpaceOnUse" x="61.1" y="0" width="38.9" height="54" id="mask-2_1_-businessCard"><g style="filter: url(&quot;#Adobe_OpacityMaskFilter-businessCard&quot;);"><rect width="100" height="54" style="fill-rule: evenodd; clip-rule: evenodd; fill: rgb(255, 255, 255);"></rect></g></mask><g style="mask: url(&quot;#mask-2_1_-businessCard&quot;);"><path d="M100,0v54H74.3c-8-6.2-13.2-16-13.2-26.9c0-11,5.3-20.9,13.4-27.1H100z" style="fill-rule: evenodd; clip-rule: evenodd; fill: rgb(239, 83, 80);"></path><g style="opacity: 0.3034;"><path d="M100,25.3v9.6l-8.6,8.6c-0.1,0.1-0.1,0.2-0.2,0.2c-0.2,0.2-0.5,0.4-0.8,0.6c-0.5,0.3-1.1,0.4-1.6,0.4 c-0.9,0-1.7-0.3-2.4-1c-0.1-0.1-0.2-0.3-0.4-0.4l-3.8-3.8l-0.8-0.8l-6-6c-0.7-0.7-1-1.5-1-2.4c0-0.9,0.3-1.7,1-2.4 c1.3-1.3,3.4-1.3,4.8,0l4,4l4.5,4.5L100,25.3z"></path></g><g><path d="M100,16.3v9.6L86.9,39c-0.1,0.1-0.1,0.1-0.2,0.2c-0.2,0.2-0.5,0.4-0.8,0.6c-0.5,0.3-1.1,0.4-1.6,0.4 c-0.7,0-1.4-0.2-2-0.7c-0.2-0.1-0.3-0.2-0.4-0.3s-0.2-0.3-0.3-0.4L70.2,27.5c-0.7-0.7-1-1.5-1-2.4s0.3-1.7,1-2.4 c1.3-1.3,3.5-1.3,4.8,0l5.3,5.3l4,4L100,16.3z" style="fill: rgb(255, 255, 255);"></path></g></g><g><defs><filter id="Adobe_OpacityMaskFilter_1_-businessCard" filterUnits="userSpaceOnUse" x="8" y="31" width="34" height="3"><feColorMatrix type="matrix" values="1 0 0 0 0  0 1 0 0 0  0 0 1 0 0  0 0 0 1 0"></feColorMatrix></filter></defs><mask maskUnits="userSpaceOnUse" x="8" y="31" width="34" height="3" id="mask-2_2_-businessCard"><g style="filter: url(&quot;#Adobe_OpacityMaskFilter_1_-businessCard&quot;);"><rect width="100" height="54" style="fill-rule: evenodd; clip-rule: evenodd; fill: rgb(255, 255, 255);"></rect></g></mask><polygon points="8,34 42,34 42,31 8,31 " style="mask: url(&quot;#mask-2_2_-businessCard&quot;); fill-rule: evenodd; clip-rule: evenodd; fill: rgb(223, 224, 230);"></polygon><defs><filter id="Adobe_OpacityMaskFilter_2_-businessCard" filterUnits="userSpaceOnUse" x="8" y="20" width="30" height="3"><feColorMatrix type="matrix" values="1 0 0 0 0  0 1 0 0 0  0 0 1 0 0  0 0 0 1 0"></feColorMatrix></filter></defs><mask maskUnits="userSpaceOnUse" x="8" y="20" width="30" height="3" id="mask-2_3_-businessCard"><g style="filter: url(&quot;#Adobe_OpacityMaskFilter_2_-businessCard&quot;);"><rect width="100" height="54" style="fill-rule: evenodd; clip-rule: evenodd; fill: rgb(255, 255, 255);"></rect></g></mask><polygon points="8,23 38,23 38,20 8,20 " style="mask: url(&quot;#mask-2_3_-businessCard&quot;); fill-rule: evenodd; clip-rule: evenodd; fill: rgb(223, 224, 230);"></polygon><defs><filter id="Adobe_OpacityMaskFilter_3_-businessCard" filterUnits="userSpaceOnUse" x="8" y="37" width="34" height="3"><feColorMatrix type="matrix" values="1 0 0 0 0  0 1 0 0 0  0 0 1 0 0  0 0 0 1 0"></feColorMatrix></filter></defs><mask maskUnits="userSpaceOnUse" x="8" y="37" width="34" height="3" id="mask-2_4_-businessCard"><g style="filter: url(&quot;#Adobe_OpacityMaskFilter_3_-businessCard&quot;);"><rect width="100" height="54" style="fill-rule: evenodd; clip-rule: evenodd; fill: rgb(255, 255, 255);"></rect></g></mask><polygon points="8,40 42,40 42,37 8,37" style="mask: url(&quot;#mask-2_4_-businessCard&quot;); fill-rule: evenodd; clip-rule: evenodd; fill: rgb(223, 224, 230);"></polygon><defs><filter id="Adobe_OpacityMaskFilter_4_-businessCard" filterUnits="userSpaceOnUse" x="8" y="43" width="34" height="3"><feColorMatrix type="matrix" values="1 0 0 0 0  0 1 0 0 0  0 0 1 0 0  0 0 0 1 0"></feColorMatrix></filter></defs><mask maskUnits="userSpaceOnUse" x="8" y="43" width="34" height="3" id="mask-2_5_-businessCard"><g style="filter: url(&quot;#Adobe_OpacityMaskFilter_4_-businessCard&quot;);"><rect width="100" height="54" style="fill-rule: evenodd; clip-rule: evenodd; fill: rgb(255, 255, 255);"></rect></g></mask><polygon points="8,46 42,46 42,43 8,43" style="mask: url(&quot;#mask-2_5_-businessCard&quot;); fill-rule: evenodd; clip-rule: evenodd; fill: rgb(223, 224, 230);"></polygon><defs><filter id="Adobe_OpacityMaskFilter_5_-businessCard" filterUnits="userSpaceOnUse" x="8" y="8" width="38" height="6"><feColorMatrix type="matrix" values="1 0 0 0 0  0 1 0 0 0  0 0 1 0 0  0 0 0 1 0"></feColorMatrix></filter></defs><mask maskUnits="userSpaceOnUse" x="8" y="8" width="38" height="6" id="mask-2_6_-businessCard"><g style="filter: url(&quot;#Adobe_OpacityMaskFilter_5_-businessCard&quot;);"><rect width="100" height="54" style="fill-rule: evenodd; clip-rule: evenodd; fill: rgb(255, 255, 255);"></rect></g></mask><polygon points="8,14 46,14 46,8 8,8 " style="mask: url(&quot;#mask-2_6_-businessCard&quot;); fill-rule: evenodd; clip-rule: evenodd; fill: rgb(223, 224, 230);"></polygon></g></svg>