<svg xmlns="http://www.w3.org/2000/svg" x="0px" y="0px" viewBox="0 0 110 58"><rect width="110" height="58" style="fill-rule: evenodd; clip-rule: evenodd; fill: rgb(255, 255, 255);"></rect><rect width="44" height="58" style="fill-rule: evenodd; clip-rule: evenodd; fill: rgb(100, 65, 164);"></rect><g transform="translate(11.000000, 18.000000)"><path d="M1.5,0L0,3.9v16h5.5v2.9h3.1l2.9-2.9H16l6-6V0H1.5z M19.9,12.9l-3.4,3.4H11l-2.9,2.9v-2.9H3.4V2 h16.5V12.9z M16.5,6v6h-2.1V6H16.5z M11,6v6H8.9V6H11z" style="fill-rule: evenodd; clip-rule: evenodd; fill: rgb(255, 255, 255);"></path></g><path d="M54,13h46v7H54V13z M54,26h46v7H54V26z M54,39h30v7H54V39z" style="fill-rule: evenodd; clip-rule: evenodd; fill: rgb(223, 224, 230);"></path></svg>