<svg xmlns="http://www.w3.org/2000/svg" viewBox="0 0 74 60"><defs><linearGradient id="slide-grad" x1="2.272%" x2="99.192%" y1="2.759%" y2="99.679%"><stop offset="0%" stop-color="#2D50DC"></stop><stop offset="98.27%" stop-color="#9B29E6"></stop></linearGradient></defs><g fill="none"><path fill="#9FB1FF" d="M1 0h72c.6 0 1 .4 1 1v58c0 .6-.4 1-1 1H1c-.6 0-1-.4-1-1V1c0-.6.4-1 1-1z"></path><path fill="#6079E1" d="M4 50h6v6H4v-6zm10 0h6v6h-6v-6zm10 0h6v6h-6v-6zm10 0h6v6h-6v-6zm10 0h6v6h-6v-6zm10 0h6v6h-6v-6zm10 0h6v6h-6v-6z" opacity=".5"></path><path fill="url(#slide-grad)" d="M1 0h72c.6 0 1 .4 1 1v45H0V1c0-.6.4-1 1-1z"></path><path d="M18 16h3v14h-3zm5-1h3v16h-3zm25 0h3v16h-3zm5 1h3v14h-3zm-24-2h16c.6 0 1 .4 1 1v16c0 .6-.4 1-1 1H29c-.6 0-1-.4-1-1V15c0-.6.4-1 1-1zm10 7c1.1 0 2-.9 2-2s-.9-2-2-2-2 .9-2 2 .9 2 2 2zm-9 9h14l-4.5-6-3.5 4.6-2.5-3.1L30 30z" fill="#FFF"></path></g></svg>