<svg xmlns="http://www.w3.org/2000/svg" x="0px" y="0px" viewBox="0 0 60 84"><g><g><path d="M17.5,6.7C17.2,7.4,17,8.2,17,9c0,3.3,2.9,6,6.5,6H24v69H0V0h24v3h-0.5c-1.3,0-2.6,0.4-3.6,1.1 C18.8,4.7,18,5.7,17.5,6.7z" style="fill-rule: evenodd; clip-rule: evenodd; fill: rgb(41, 182, 246);"></path></g><polygon points="14.4,72.3 13.6,84 0.3,84 0,83.8 0,79 11.7,73.6" style="fill-rule: evenodd; clip-rule: evenodd; fill-opacity: 0.2;"></polygon><polygon points="11.7,73.1 11.7,73.6 11,84 0.1,84 0,84 0,78.8" style="fill-rule: evenodd; clip-rule: evenodd; fill: rgb(255, 255, 255);"></polygon><g><path d="M0,15.7v2.5l7.8,5.6L0,27v2.2l11.8-5L0,15.7z" style="fill: rgb(255, 255, 255);"></path></g><g style="opacity: 0.2;"><polygon points="17.4,45.5 16,46.9 12,42.9 8,46.9 4,42.9 0,46.9 0,44.1 2.1,42 2.8,41.3 3.5,40.6 4,40.1 6.5,42.6 7.2,43.3 7.9,44 8,44.1 10.1,42 10.8,41.3 11.5,40.6 12,40.1"></polygon></g><g id="zig-zag2"><polygon points="15.4,44.5 14,45.9 10,41.9 6,45.9 2,41.9 0,43.9 0,41.1 2,39.1 6,43.1 10,39.1" style="fill: rgb(255, 255, 255);"></polygon></g><path d="M24,15v2.9C23.7,18,23.3,18,23,18c-3.9,0-7-3.1-7-7c0-1.6,0.5-3.1,1.5-4.3C17.2,7.4,17,8.2,17,9 c0,3.3,2.9,6,6.5,6H24z" style="fill-rule: evenodd; clip-rule: evenodd; fill-opacity: 0.2;"></path><g id="Oval-Copy"><path d="M16.5,66C14,66,12,64,12,61.5s2-4.5,4.5-4.5s4.5,2,4.5,4.5S19,66,16.5,66z M16.5,59c-1.4,0-2.5,1.1-2.5,2.5 s1.1,2.5,2.5,2.5s2.5-1.1,2.5-2.5S17.9,59,16.5,59z" style="fill: rgb(255, 255, 255);"></path></g></g><g id="text" transform="translate(18.000000, 23.000000)"><path d="M6-23v3H5.5c-1.3,0-2.6,0.4-3.6,1.1c-1,0.7-1.9,1.6-2.4,2.6C-0.8-15.6-1-14.8-1-14c0,3.3,2.9,6,6.5,6H6v8h24v6 H6v55h36v-84H6z M10,12h9v3h-3v6h-3v-6h-3V12z M25,39H10v-3h15V39z M38,33H10v-3h28V33z M38,27H10v-3h28V27z M38,21H22v-3h16V21z M38,15H22v-3h16V15z" style="fill-rule: evenodd; clip-rule: evenodd; fill: rgb(255, 255, 255);"></path><polygon points="13,21 13,15 10,15 10,12 19,12 19,15 16,15 16,21" style="fill-rule: evenodd; clip-rule: evenodd; fill: rgb(255, 255, 255);"></polygon><rect x="10" y="36" width="15" height="3" style="fill-rule: evenodd; clip-rule: evenodd; fill: rgb(255, 255, 255);"></rect><rect x="6" width="24" height="6" style="fill-rule: evenodd; clip-rule: evenodd; fill: rgb(255, 255, 255);"></rect><rect x="22" y="12" width="16" height="3" style="fill-rule: evenodd; clip-rule: evenodd; fill: rgb(255, 255, 255);"></rect><rect x="22" y="18" width="16" height="3" style="fill-rule: evenodd; clip-rule: evenodd; fill: rgb(255, 255, 255);"></rect><rect x="10" y="24" width="28" height="3" style="fill-rule: evenodd; clip-rule: evenodd; fill: rgb(255, 255, 255);"></rect><rect x="10" y="30" width="28" height="3" style="fill-rule: evenodd; clip-rule: evenodd; fill: rgb(255, 255, 255);"></rect><rect x="22" y="12" width="16" height="3" style="fill-rule: evenodd; clip-rule: evenodd; fill: rgb(223, 224, 230);"></rect><rect x="10" y="12" width="9" height="3" style="fill-rule: evenodd; clip-rule: evenodd; fill: rgb(223, 224, 230);"></rect><rect x="13" y="12" width="3" height="9" style="fill-rule: evenodd; clip-rule: evenodd; fill: rgb(223, 224, 230);"></rect><rect x="22" y="18" width="16" height="3" style="fill-rule: evenodd; clip-rule: evenodd; fill: rgb(223, 224, 230);"></rect><rect x="10" y="24" width="28" height="3" style="fill-rule: evenodd; clip-rule: evenodd; fill: rgb(223, 224, 230);"></rect><rect x="10" y="30" width="28" height="3" style="fill-rule: evenodd; clip-rule: evenodd; fill: rgb(223, 224, 230);"></rect><rect x="10" y="36" width="15" height="3" style="fill-rule: evenodd; clip-rule: evenodd; fill: rgb(223, 224, 230);"></rect><rect width="30" height="6" style="fill-rule: evenodd; clip-rule: evenodd; fill: rgb(223, 224, 230);"></rect></g></svg>