<svg xmlns="http://www.w3.org/2000/svg" x="0px" y="0px" viewBox="0 0 104 74"><g transform="translate(35.000000, 0.000000)"><rect width="35" height="74" style="fill-rule: evenodd; clip-rule: evenodd; fill: rgb(255, 255, 255);"></rect><g transform="translate(4.000000, 23.000000)"><polygon points="13,3 26,3 26,0 13,0 " style="fill-rule: evenodd; clip-rule: evenodd; fill: rgb(219, 221, 232);"></polygon><polygon points="1,3 10,3 10,0 1,0 " style="fill-rule: evenodd; clip-rule: evenodd; fill: rgb(219, 221, 232);"></polygon><polygon points="4,0 4,9 7,9 7,0 " style="fill-rule: evenodd; clip-rule: evenodd; fill: rgb(219, 221, 232);"></polygon><polygon points="13,9 26,9 26,6 13,6 " style="fill-rule: evenodd; clip-rule: evenodd; fill: rgb(219, 221, 232);"></polygon><polygon points="7,33 21,33 21,30 7,30 " style="fill-rule: evenodd; clip-rule: evenodd; fill: rgb(219, 221, 232);"></polygon><polygon points="1,15 26,15 26,12 1,12 " style="fill-rule: evenodd; clip-rule: evenodd; fill: rgb(219, 221, 232);"></polygon><polygon points="1,21 26,21 26,18 1,18 " style="fill-rule: evenodd; clip-rule: evenodd; fill: rgb(219, 221, 232);"></polygon><polygon points="1,27 26,27 26,24 1,24 " style="fill-rule: evenodd; clip-rule: evenodd; fill: rgb(219, 221, 232);"></polygon></g></g><g transform="translate(0.000000, -0.000000)"><g transform="translate(0.000000, 0.000000)"><rect y="37" width="35" height="37" style="fill-rule: evenodd; clip-rule: evenodd; fill: rgb(126, 87, 194);"></rect><g transform="translate(7.000000, 51.000000)"><rect width="21" height="23" style="fill-rule: evenodd; clip-rule: evenodd; fill: rgb(255, 255, 255);"></rect><g transform="translate(3.000000, 3.000000)"><rect x="9" width="6" height="2" style="fill-rule: evenodd; clip-rule: evenodd; fill-opacity: 0.2;"></rect><rect x="9" y="4" width="6" height="2" style="fill-rule: evenodd; clip-rule: evenodd; fill-opacity: 0.2;"></rect><rect x="9" y="8" width="6" height="2" style="fill-rule: evenodd; clip-rule: evenodd; fill-opacity: 0.2;"></rect><rect width="6" height="2" style="fill-rule: evenodd; clip-rule: evenodd; fill-opacity: 0.2;"></rect><rect y="4" width="6" height="2" style="fill-rule: evenodd; clip-rule: evenodd; fill-opacity: 0.2;"></rect><rect y="8" width="6" height="2" style="fill-rule: evenodd; clip-rule: evenodd; fill-opacity: 0.2;"></rect><rect x="9" y="12" width="6" height="2" style="fill-rule: evenodd; clip-rule: evenodd; fill-opacity: 0.2;"></rect><rect x="9" y="16" width="6" height="2" style="fill-rule: evenodd; clip-rule: evenodd; fill-opacity: 0.2;"></rect><rect y="12" width="6" height="2" style="fill-rule: evenodd; clip-rule: evenodd; fill-opacity: 0.2;"></rect><rect y="16" width="6" height="2" style="fill-rule: evenodd; clip-rule: evenodd; fill-opacity: 0.2;"></rect></g></g><rect width="35" height="37" style="fill-rule: evenodd; clip-rule: evenodd; fill: rgb(219, 221, 232);"></rect></g><g transform="translate(6.000000, 11.000000)"><polygon points="0,3 23,3 23,0 0,0" style="fill-rule: evenodd; clip-rule: evenodd; fill: rgb(255, 255, 255); opacity: 0.9;"></polygon><polygon points="0,9 23,9 23,6 0,6" style="fill-rule: evenodd; clip-rule: evenodd; fill: rgb(255, 255, 255);"></polygon><polygon points="0,15 23,15 23,12 0,12" style="fill-rule: evenodd; clip-rule: evenodd; fill: rgb(255, 255, 255);"></polygon></g></g><g><rect x="70" width="34" height="50" style="fill-rule: evenodd; clip-rule: evenodd; fill: rgb(50, 34, 77);"></rect></g><g><g transform="translate(17.000000, 16.000000)"><g><rect x="68" width="13" height="34" style="fill-rule: evenodd; clip-rule: evenodd; fill: rgb(219, 221, 232);"></rect></g><g style="opacity: 0.5;"><g transform="translate(2.000000, 2.000000)"><rect x="68" width="9" height="2" style="fill-rule: evenodd; clip-rule: evenodd; fill-opacity: 0.2;"></rect><rect x="68" y="4" width="9" height="2" style="fill-rule: evenodd; clip-rule: evenodd; fill-opacity: 0.2;"></rect><rect x="68" y="8" width="9" height="2" style="fill-rule: evenodd; clip-rule: evenodd; fill-opacity: 0.2;"></rect><rect x="68" y="12" width="9" height="2" style="fill-rule: evenodd; clip-rule: evenodd; fill-opacity: 0.2;"></rect><rect x="67" y="16" width="10" height="2" style="fill-rule: evenodd; clip-rule: evenodd; fill-opacity: 0.2;"></rect><rect x="67" y="20" width="10" height="2" style="fill-rule: evenodd; clip-rule: evenodd; fill-opacity: 0.2;"></rect><rect x="67" y="24" width="10" height="2" style="fill-rule: evenodd; clip-rule: evenodd; fill-opacity: 0.2;"></rect><rect x="67" y="28" width="10" height="2" style="fill-rule: evenodd; clip-rule: evenodd; fill-opacity: 0.2;"></rect></g></g></g></g><rect x="70" y="50" width="34" height="24" style="fill-rule: evenodd; clip-rule: evenodd; fill: rgb(219, 221, 232);"></rect><g><g><g transform="translate(4.000000, 31.000000)"><rect x="73" y="1" width="12" height="18" style="fill-rule: evenodd; clip-rule: evenodd; fill: rgb(255, 255, 255);"></rect></g></g><rect x="79" y="34" width="8" height="2" style="fill-rule: evenodd; clip-rule: evenodd; fill: rgb(219, 221, 232);"></rect><rect x="79" y="38" width="8" height="2" style="fill-rule: evenodd; clip-rule: evenodd; fill: rgb(219, 221, 232);"></rect><rect x="79" y="42" width="8" height="2" style="fill-rule: evenodd; clip-rule: evenodd; fill: rgb(219, 221, 232);"></rect><rect x="79" y="46" width="8" height="2" style="fill-rule: evenodd; clip-rule: evenodd; fill: rgb(219, 221, 232);"></rect></g></svg>