<svg xmlns="http://www.w3.org/2000/svg" x="0px" y="0px" viewBox="0 0 60 84"><g><rect y="31" width="60" height="53" style="fill-rule: evenodd; clip-rule: evenodd; fill: rgb(255, 255, 255);"></rect></g><g><polygon points="18,41.5 18,47.5 15,47.5 15,41.5 12,41.5 12,38.5 21,38.5 21,41.5" style="fill-rule: evenodd; clip-rule: evenodd; fill: rgb(223, 224, 230);"></polygon><rect x="24" y="38.5" width="24.5" height="3" style="fill-rule: evenodd; clip-rule: evenodd; fill: rgb(223, 224, 230);"></rect><rect x="24" y="44.5" width="16" height="3" style="fill-rule: evenodd; clip-rule: evenodd; fill: rgb(223, 224, 230);"></rect></g><g><rect x="12" y="66.5" width="36" height="3" style="fill-rule: evenodd; clip-rule: evenodd; fill: rgb(223, 224, 230);"></rect><rect x="12" y="72.5" width="36" height="3" style="fill-rule: evenodd; clip-rule: evenodd; fill: rgb(223, 224, 230);"></rect></g><g><rect x="12" y="52.5" width="36.5" height="3" style="fill-rule: evenodd; clip-rule: evenodd; fill: rgb(223, 224, 230);"></rect><rect x="12" y="58.5" width="36.5" height="3" style="fill-rule: evenodd; clip-rule: evenodd; fill: rgb(223, 224, 230);"></rect></g><g><g><rect width="60" height="31" style="fill-rule: evenodd; clip-rule: evenodd; fill: rgb(135, 188, 120);"></rect></g><path d="M15,31H0V16C8.3,16,15,22.7,15,31z" style="fill-rule: evenodd; clip-rule: evenodd; fill: rgb(255, 255, 255); opacity: 0.2017;"></path><path d="M60,0v15c-8.3,0-15-6.7-15-15H60z" style="fill-rule: evenodd; clip-rule: evenodd; fill: rgb(255, 255, 255); opacity: 0.2017;"></path><path d="M10,31H0V21C5.5,21,10,25.5,10,31z" style="fill-rule: evenodd; clip-rule: evenodd; fill: rgb(255, 255, 255); opacity: 0.2017;"></path><path d="M60,0v10c-5.5,0-10-4.5-10-10H60z" style="fill-rule: evenodd; clip-rule: evenodd; fill: rgb(255, 255, 255); opacity: 0.2017;"></path><path d="M28.6,12.7h-1.8V6.2H25v6.5h-1.9V6.2h-1.8v6.5c0,2,1.5,3.6,3.4,3.7v8.4H27v-8.4 c1.9-0.1,3.4-1.7,3.4-3.7V6.2h-1.8C28.6,6.2,28.6,12.7,28.6,12.7z M33.2,9.9v7.5h2.3v7.5h2.3V6.2C35.3,6.2,33.2,8.3,33.2,9.9z" style="fill: rgb(255, 255, 255);"></path></g></svg>