<svg xmlns="http://www.w3.org/2000/svg" x="0px" y="0px" viewBox="0 0 104 74"><g><rect y="7" width="104" height="67" style="fill-rule: evenodd; clip-rule: evenodd; fill: rgb(255, 255, 255);"></rect></g><defs><filter id="Adobe_OpacityMaskFilter-presentation" filterUnits="userSpaceOnUse" x="8" y="22.5" width="36.5" height="36.5"><feColorMatrix type="matrix" values="1 0 0 0 0  0 1 0 0 0  0 0 1 0 0  0 0 0 1 0"></feColorMatrix></filter></defs><mask maskUnits="userSpaceOnUse" x="8" y="22.5" width="36.5" height="36.5" id="mask-2_1_-presentation"><g style="filter: url(&quot;#Adobe_OpacityMaskFilter-presentation&quot;);"><rect id="path-1_1_" y="7" width="104" height="67" style="fill-rule: evenodd; clip-rule: evenodd; fill: rgb(255, 255, 255);"></rect></g></mask><g style="mask: url(&quot;#mask-2_1_-presentation&quot;);"><g transform="translate(8.000000, 22.000000)"><path d="M20.5,3.4C19.9,6.3,18.7,11.8,17,20l16.6-3.5c0.2,1.1,0.4,2.3,0.4,3.5 c0,9.4-7.6,17-17,17S0,29.4,0,20S7.6,3,17,3C18.2,3,19.4,3.1,20.5,3.4z" style="fill-rule: evenodd; clip-rule: evenodd; fill: rgb(38, 166, 154);"></path><path d="M23.5,0.5c0,0-1.2,5.5-3.5,16.5l16.5-3.5C34.8,6.5,30.5,2.2,23.5,0.5z" style="fill-rule: evenodd; clip-rule: evenodd; fill: rgb(223, 224, 230);"></path></g></g><defs><filter id="Adobe_OpacityMaskFilter_1_-presentation" filterUnits="userSpaceOnUse" x="60" y="27" width="36" height="27"><feColorMatrix type="matrix" values="1 0 0 0 0  0 1 0 0 0  0 0 1 0 0  0 0 0 1 0"></feColorMatrix></filter></defs><mask maskUnits="userSpaceOnUse" x="60" y="27" width="36" height="27" id="mask-2_2_-presentation"><g style="filter: url(&quot;#Adobe_OpacityMaskFilter_1_-presentation&quot;);"><rect y="7" width="104" height="67" style="fill-rule: evenodd; clip-rule: evenodd; fill: rgb(255, 255, 255);"></rect></g></mask><path d="M66,30v6h-3v-6h-3v-3h9v3H66z M72,30v-3h24v3H72z M72,36v-3h24v3H72z M60,42v-3h36v3H60z M60,48v-3 h36v3H60z M60,54v-3h18v3H60z" style="mask: url(&quot;#mask-2_2_-presentation&quot;); fill-rule: evenodd; clip-rule: evenodd; fill: rgb(223, 224, 230);"></path><rect width="104" height="7" style="fill-rule: evenodd; clip-rule: evenodd; fill: rgb(0, 118, 108);"></rect></svg>