<svg xmlns="http://www.w3.org/2000/svg" x="0px" y="0px" viewBox="0 0 60 84"><rect width="60" height="84" style="fill: rgb(213, 198, 245);"></rect><rect x="4" y="21" width="20.5" height="2" style="fill: rgb(255, 255, 255);"></rect><rect x="4" y="25" width="20.5" height="2" style="fill: rgb(255, 255, 255);"></rect><rect x="4" y="29" width="10.8" height="2" style="fill: rgb(255, 255, 255);"></rect><g transform="translate(13.000000, 19.000000)"><path d="M16.7,0h1.7C24.8,0,30,5.3,30,11.8v25.9C30,43.4,25.4,48,19.8,48h-4.5C9.6,48,5,43.4,5,37.7V11.8 C5,5.3,10.2,0,16.7,0z" style="fill: rgb(26, 29, 41);"></path><path d="M6.7,34h21.7c3.7,0,6.7,3,6.7,6.8V56H0V40.8C0,37,3,34,6.7,34z" style="fill: rgb(87, 41, 194);"></path><path d="M18,4L18,4c5,0,9,4,9,9v7c0,5-4,9-9,9l0,0c-5,0-9-4-9-9v-7C9,8,13,4,18,4z" style="fill: rgb(255, 245, 196);"></path><path d="M9,34c0,0,6-0.8,6-6h3h3c0,5.2,6,6,6,6s-3,3-9,3S9,34,9,34L9,34z" style="fill: rgb(255, 245, 196);"></path><path d="M14.9,7.6c0,0-0.8,6.6-6.9,7.4c0.5-1,0.8-2.2,0.8-3.3V6.2L16.5,3h3.8L28,9l-0.8,5.9C27.2,14.9,18,15,14.9,7.6z" style="fill: rgb(26, 29, 41);"></path></g><g transform="translate(0.000000, 72.000000)"><rect width="60" height="12" style="fill: rgb(255, 255, 255);"></rect></g><rect x="36" y="66" width="20" height="2" style="fill: rgb(255, 255, 255);"></rect><rect x="43" y="62" width="13" height="2" style="fill: rgb(255, 255, 255);"></rect><g><rect width="60" height="84" style="fill: rgb(213, 198, 245);"></rect><rect x="4" y="19" width="20.5" height="2" style="fill: rgb(255, 255, 255);"></rect><rect x="4" y="23" width="20.5" height="2" style="fill: rgb(255, 255, 255);"></rect><rect x="4" y="27" width="10.8" height="2" style="fill: rgb(255, 255, 255);"></rect><g transform="translate(13.000000, 19.000000)"><path d="M16.7,0h1.7C24.8,0,30,5.3,30,11.8v25.9C30,43.4,25.4,48,19.8,48h-4.5C9.6,48,5,43.4,5,37.7 V11.8C5,5.3,10.2,0,16.7,0z" style="fill: rgb(26, 29, 41);"></path><path d="M6.7,34h21.7c3.7,0,6.7,3,6.7,6.8V56H0V40.8C0,37,3,34,6.7,34z" style="fill: rgb(87, 41, 194);"></path><path d="M18,4L18,4c5,0,9,4,9,9v7c0,5-4,9-9,9l0,0c-5,0-9-4-9-9v-7C9,8,13,4,18,4z" style="fill: rgb(255, 245, 196);"></path><path d="M9,34c0,0,6-0.8,6-6h3h3c0,5.2,6,6,6,6s-3,3-9,3S9,34,9,34L9,34z" style="fill: rgb(255, 245, 196);"></path><path d="M14.9,7.6c0,0-0.8,6.6-6.9,7.4c0.5-1,0.8-2.2,0.8-3.3V6.2L16.5,3h3.8L28,9l-0.8,5.9C27.2,14.9,18,15,14.9,7.6z" style="fill: rgb(26, 29, 41);"></path></g><g transform="translate(0.000000, 72.000000)"><rect width="60" height="12" style="fill: rgb(255, 255, 255);"></rect></g><rect x="36" y="66" width="20" height="2" style="fill: rgb(255, 255, 255);"></rect><rect x="43" y="62" width="13" height="2" style="fill: rgb(255, 255, 255);"></rect><path d="M55,14H5c-0.6,0-1-0.4-1-1V5c0-0.6,0.4-1,1-1h50c0.6,0,1,0.4,1,1v8C56,13.6,55.6,14,55,14z" style="fill: rgb(87, 41, 194); opacity: 0.3;"></path></g></svg>