<svg xmlns="http://www.w3.org/2000/svg" x="0px" y="0px" viewBox="0 0 60 84"><g><rect width="60" height="84" style="fill-rule: evenodd; clip-rule: evenodd; fill: rgb(41, 182, 246);"></rect></g><rect x="30" width="30" height="84" style="fill-rule: evenodd; clip-rule: evenodd; fill: rgb(0, 2, 3); opacity: 0.1;"></rect><path d="M51,6c0,0-1.7,49.5-26,78h12.1c0,0-0.2-13,13.9-13c4.1,0,7,1.1,9,2.6V52.7C51.8,29,51,6,51,6z M51,38.6 c0,2.2,0.8,6,2.5,11.4H51h-2.5C50.2,44.6,51,40.9,51,38.6z M51.5,64H51h-6.6l2.9-9H51h0.5h3.7l2.9,9H51.5z" style="fill: rgb(255, 255, 255);"></path><rect x="50" y="5" width="2" height="15" style="fill-rule: evenodd; clip-rule: evenodd; fill: rgb(255, 255, 255);"></rect><rect x="49" y="10" width="4" height="3" style="fill-rule: evenodd; clip-rule: evenodd; fill: rgb(236, 236, 240);"></rect><polygon points="5,9 25,9 25,6 5,6 " style="fill-rule: evenodd; clip-rule: evenodd; fill: rgb(255, 255, 255);"></polygon><polygon points="5,16 37,16 37,13 5,13 " style="fill-rule: evenodd; clip-rule: evenodd; fill: rgb(255, 255, 255);"></polygon><polygon points="5,23 37,23 37,20 5,20 " style="fill-rule: evenodd; clip-rule: evenodd; fill: rgb(255, 255, 255);"></polygon><polygon points="5,70 25,70 25,67 5,67 " style="fill-rule: evenodd; clip-rule: evenodd; fill: rgb(255, 255, 255); opacity: 0.4;"></polygon><polygon points="5,77 25,77 25,74 5,74 " style="fill-rule: evenodd; clip-rule: evenodd; fill: rgb(255, 255, 255); opacity: 0.4;"></polygon><polygon points="60,64 34,64 35,67 60,67 " style="fill-rule: evenodd; clip-rule: evenodd; fill: rgb(236, 236, 240);"></polygon><polygon points="60,50 39,50 40,53 60,53 " style="fill-rule: evenodd; clip-rule: evenodd; fill: rgb(236, 236, 240);"></polygon></svg>