<svg xmlns="http://www.w3.org/2000/svg" x="0px" y="0px" viewBox="0 0 104 74"><g><rect width="104" height="74" style="fill-rule: evenodd; clip-rule: evenodd; fill: rgb(255, 255, 255);"></rect></g><rect x="8" y="8" width="88" height="58" style="fill-rule: evenodd; clip-rule: evenodd; fill: rgb(237, 237, 237);"></rect><path d="M65,44c3.3,3.3,5,6.5,5,9.5c0,2.3-0.8,4.3-2.5,6c-1.3,1-2.2-0.5-2.5-4.5c0.5-6,4-7,7.5-5.5 c0,0,1.5-4,4.5-2c0,0,2.5-0.3,7.5-1" style="fill: none; stroke: rgb(211, 63, 64); stroke-width: 2; stroke-linecap: round; stroke-linejoin: round;"></path><g><g transform="translate(17.000000, 34.000000)"><polygon points="6.3,11.4 0.2,25.1 4.7,23.6 6.6,28 12.7,14.3" style="fill-rule: evenodd; clip-rule: evenodd; fill: rgb(251, 192, 45);"></polygon><polygon points="15.7,11.4 21.8,25.1 17.3,23.6 15.4,28 9.3,14.3" style="fill-rule: evenodd; clip-rule: evenodd; fill: rgb(251, 192, 45);"></polygon><circle cx="11" cy="10" r="8" style="opacity: 0.9; fill-rule: evenodd; clip-rule: evenodd; fill: rgb(211, 47, 47);"></circle></g></g><path d="M0,0h12L0,12V0z M0,74V62l12,12H0z M104,0v12L92,0H104z M104,74H92l12-12V74z" style="fill-rule: evenodd; clip-rule: evenodd; fill: rgb(211, 47, 47);"></path><rect x="22" y="16" width="60" height="4" style="fill-rule: evenodd; clip-rule: evenodd; fill: rgb(189, 189, 189); opacity: 0.6;"></rect><rect x="32" y="24" width="40" height="4" style="fill-rule: evenodd; clip-rule: evenodd; fill: rgb(189, 189, 189); opacity: 0.6;"></rect></svg>