<svg xmlns="http://www.w3.org/2000/svg" x="0px" y="0px" viewBox="0 0 60 84"><rect width="60" height="84" style="fill-rule: evenodd; clip-rule: evenodd; fill: rgb(255, 255, 255);"></rect><g><rect width="22" height="84" style="fill-rule: evenodd; clip-rule: evenodd; fill: rgb(211, 47, 47);"></rect><g transform="translate(4.000000, 25.000000)"><g><g transform="translate(-1.000000, -1.000000)"><path d="M8-1L8-1c3.9,0,7,3.1,7,7v0c0,3.9-3.1,7-7,7h0c-3.9,0-7-3.1-7-7v0C1,2.1,4.1-1,8-1z" style="fill: rgb(255, 255, 255);"></path></g></g></g><path d="M4,50v-3h14v3H4z M4,44v-3h14v3H4z M4,56v-3h14v3H4z" style="fill-rule: evenodd; clip-rule: evenodd; fill: rgb(255, 255, 255);"></path></g><g transform="translate(28.000000, 23.000000)"><path d="M6,3v6H3V3H0V0h9v3H6z M12,3V0h14v3H12z M12,9V6h14v3H12z M0,15v-3h26v3H0z M0,21v-3h26v3H0z M0,27v-3h26v3H0z M0,33v-3h26v3H0z M0,39v-3h14v3H0z" style="fill-rule: evenodd; clip-rule: evenodd; fill: rgb(223, 224, 230);"></path></g></svg>