<svg xmlns="http://www.w3.org/2000/svg" x="0px" y="0px" viewBox="0 0 92 74"><path d="M43,35H1c-0.6,0-1-0.4-1-1V1c0-0.6,0.4-1,1-1h42c0.6,0,1,0.4,1,1v33C44,34.6,43.6,35,43,35z" style="fill-rule: evenodd; clip-rule: evenodd; fill: rgb(131, 211, 247);"></path><path d="M43,74H1c-0.6,0-1-0.4-1-1V40c0-0.6,0.4-1,1-1h42c0.6,0,1,0.4,1,1v33C44,73.6,43.6,74,43,74z" style="fill-rule: evenodd; clip-rule: evenodd; fill: rgb(59, 189, 224);"></path><path d="M91,74H49c-0.6,0-1-0.4-1-1V1c0-0.6,0.4-1,1-1h42c0.6,0,1,0.4,1,1v72C92,73.6,91.6,74,91,74z" style="fill-rule: evenodd; clip-rule: evenodd; fill: rgb(62, 190, 247);"></path><path d="M9.1,66.4h25.8l-8.2-11.3l-6.4,8.4L15.6,58L9.1,66.4z M15.9,54.1c1.8,0,3.2-1.5,3.2-3.2s-1.5-3.2-3.2-3.2 s-3.2,1.5-3.2,3.2S14.1,54.1,15.9,54.1z" style="fill-rule: evenodd; clip-rule: evenodd; fill: rgb(255, 255, 255); opacity: 0.2;"></path><polygon points="9.1,26.4 34.9,26.4 26.7,15.1 20.2,23.5 15.6,18 " style="fill-rule: evenodd; clip-rule: evenodd; fill: rgb(255, 255, 255); opacity: 0.2;"></polygon><circle cx="15.9" cy="10.8" r="3.2" style="fill-rule: evenodd; clip-rule: evenodd; fill: rgb(255, 255, 255); opacity: 0.2;"></circle><path d="M66.7,52H25.3c-0.6,0-1-0.4-1-1V23c0-0.6,0.4-1,1-1h41.4c0.6,0,1,0.4,1,1v28C67.7,51.6,67.2,52,66.7,52z" style="fill-rule: evenodd; clip-rule: evenodd; fill: rgb(255, 255, 255);"></path><path d="M35.6,31.5v-4h20.7v4H35.6z" style="fill-rule: evenodd; clip-rule: evenodd; fill: rgb(223, 224, 230);"></path><path d="M31,39v-4h30v4H31z" style="fill-rule: evenodd; clip-rule: evenodd; fill: rgb(223, 224, 230);"></path><path d="M35.6,46.5v-4h20.7v4H35.6z" style="fill-rule: evenodd; clip-rule: evenodd; fill: rgb(223, 224, 230);"></path><g style="opacity: 0.45;"><clipPath id="myClip-photoCollage" style="opacity: 0.45;"><path d="M83.2,66.6H56.8c-0.4,0-0.6-0.3-0.6-0.8V8.3c0-0.5,0.3-0.8,0.6-0.8h26.3c0.4,0,0.6,0.3,0.6,0.8 v57.5C83.8,66.3,83.5,66.6,83.2,66.6z" style="opacity: 0.45; overflow: visible;"></path></clipPath><g clip-path="url(#myClip-photoCollage)"><path d="M67.4,93l-2.8-2.8l68.6-68.6l2.8,2.8L67.4,93z" style="fill-rule: evenodd; clip-rule: evenodd; fill: rgb(255, 255, 255); opacity: 0.2;"></path><path d="M61.3,87.9L58.4,85L127,16.5l2.8,2.8L61.3,87.9z" style="fill-rule: evenodd; clip-rule: evenodd; fill: rgb(255, 255, 255); opacity: 0.2;"></path><path d="M55.7,82.3l-2.8-2.8l68.6-68.6l2.8,2.8L55.7,82.3z" style="fill-rule: evenodd; clip-rule: evenodd; fill: rgb(255, 255, 255); opacity: 0.2;"></path><path d="M50.1,76.7l-2.8-2.8l68.6-68.6l2.8,2.8L50.1,76.7z" style="fill-rule: evenodd; clip-rule: evenodd; fill: rgb(255, 255, 255); opacity: 0.2;"></path><path d="M44.5,71.1l-2.8-2.8l68.6-68.6l2.8,2.8L44.5,71.1z" style="fill-rule: evenodd; clip-rule: evenodd; fill: rgb(255, 255, 255); opacity: 0.2;"></path><path d="M38.9,65.4L36,62.6l68.6-68.6l2.8,2.8L38.9,65.4z" style="fill-rule: evenodd; clip-rule: evenodd; fill: rgb(255, 255, 255); opacity: 0.2;"></path><path d="M33.3,59.8L30.4,57L99-11.6l2.8,2.8L33.3,59.8z" style="fill-rule: evenodd; clip-rule: evenodd; fill: rgb(255, 255, 255); opacity: 0.2;"></path><path d="M27.7,54.2l-2.8-2.8l68.6-68.6l2.8,2.8L27.7,54.2z" style="fill-rule: evenodd; clip-rule: evenodd; fill: rgb(255, 255, 255); opacity: 0.2;"></path><path d="M22.1,48.6l-2.8-2.8l68.6-68.6l2.8,2.8L22.1,48.6z" style="fill-rule: evenodd; clip-rule: evenodd; fill: rgb(255, 255, 255); opacity: 0.2;"></path><path d="M16.5,43l-2.8-2.8l68.6-68.6l2.8,2.8L16.5,43z" style="fill-rule: evenodd; clip-rule: evenodd; fill: rgb(255, 255, 255); opacity: 0.2;"></path><path d="M10.8,37.4L8,34.6L76.6-34l2.8,2.8L10.8,37.4z" style="fill-rule: evenodd; clip-rule: evenodd; fill: rgb(255, 255, 255); opacity: 0.2;"></path></g></g></svg>