<svg xmlns="http://www.w3.org/2000/svg" version="1.0" viewBox="0 0 1024.000000 1024.000000" style="&#10; height: 24px;&#10; width: 24px;&#10;"><defs xmlns="http://www.w3.org/2000/svg"> <linearGradient id="grad1" x1="0%" y1="0%" x2="100%" y2="0%"> <stop offset="0%" style="stop-color: #2989ff;stop-opacity:1;"/> <stop offset="100%" style="stop-color: #63a8ff;stop-opacity:1;"/> </linearGradient> </defs><g transform="translate(0.000000,1024.000000) scale(0.100000,-0.100000)" fill="url(#grad1)" stroke="none"><path d="M1337 10199 c-318 -56 -607 -208 -843 -443 -239 -240 -389 -527 -444 -852 -20 -117 -20 -152 -17 -2604 l2 -2485 27 -105 c36 -147 62 -219 119 -340 186 -390 529 -694 934 -826 231 -75 241 -76 817 -81 l517 -5 4 -521 c5 -582 6 -592 77 -817 106 -336 328 -632 625 -832 163 -110 330 -182 545 -236 l105 -27 2485 -2 c2452 -3 2487 -3 2604 17 324 55 613 206 852 444 305 306 473 709 462 1110 -3 121 -5 136 -32 191 -38 77 -114 153 -191 191 -55 27 -69 29 -170 29 -104 0 -114 -2 -177 -33 -86 -42 -168 -129 -198 -209 -15 -38 -25 -97 -31 -172 -11 -139 -37 -240 -89 -340 -81 -155 -199 -270 -355 -346 -181 -88 91 -79 -2585 -83 -1769 -2 -2394 0 -2450 9 -314 48 -570 282 -650 593 -20 78 -20 103 -20 2468 0 2690 -7 2453 80 2633 109 225 296 373 540 430 57 13 365 15 2456 15 2367 0 2392 0 2470 -20 251 -65 461 -249 550 -486 55 -148 54 -105 54 -1569 0 -1331 0 -1354 20 -1419 33 -107 103 -187 210 -239 61 -30 72 -32 175 -32 101 0 115 2 170 29 77 38 158 120 193 193 l27 58 0 1460 0 1460 -23 103 c-32 143 -65 240 -123 362 -189 396 -534 698 -949 830 -223 71 -236 72 -807 77 l-512 5 -4 521 c-5 576 -6 592 -73 805 -109 351 -326 641 -634 847 -160 107 -330 181 -540 233 l-105 27 -2495 2 c-2419 1 -2498 1 -2603 -18z m168 -1449 l-670 -670 -3 42 c-2 24 -2 178 1 343 3 274 6 306 26 375 46 154 143 302 264 400 100 82 267 156 392 173 17 2 172 5 345 6 l315 1 -670 -670z m1130 -1130 l-1800 -1800 -3 557 -2 558 1242 1242 1243 1243 560 0 560 0 -1800 -1800z m3697 1786 c78 -15 197 -57 237 -83 24 -15 22 -17 -740 -779 l-764 -764 -565 0 -565 0 797 798 c438 438 799 807 803 820 l6 22 359 0 c267 0 377 -4 432 -14z m648 -1246 l0 -380 -382 0 -383 0 380 380 c209 209 381 380 382 380 2 0 3 -171 3 -380z m-5282 -3747 c-567 -567 -755 -750 -765 -742 -20 17 -73 165 -89 247 -10 55 -14 162 -14 415 l0 342 808 808 807 807 3 -562 2 -563 -752 -752z m752 -773 l0 -370 -372 0 -373 0 370 370 c203 204 371 370 372 370 2 0 3 -166 3 -370z"/></g></svg>