<svg xmlns="http://www.w3.org/2000/svg" version="1.0" viewBox="0 0 1024.000000 1024.000000" style="&#10; height: 24px;&#10; width: 24px;&#10;"><defs xmlns="http://www.w3.org/2000/svg"> <linearGradient id="grad1" x1="0%" y1="0%" x2="100%" y2="0%"> <stop offset="0%" style="stop-color: #2989ff;stop-opacity:1;"/> <stop offset="100%" style="stop-color: #63a8ff;stop-opacity:1;"/> </linearGradient> </defs><g transform="translate(0.000000,1024.000000) scale(0.100000,-0.100000)" fill="url(#grad1)" stroke="none"><path d="M1980 5860 c-745 -1711 -1357 -3115 -1358 -3120 -3 -7 123 -9 368 -8 l372 3 466 1068 465 1067 1050 -2 1051 -3 465 -1067 465 -1068 368 0 c227 0 368 4 368 10 0 16 -2708 6224 -2717 6227 -4 2 -618 -1397 -1363 -3107z m1745 542 c202 -464 365 -845 363 -848 -3 -2 -340 -3 -751 -2 l-746 3 359 825 c429 984 390 898 400 880 4 -8 173 -394 375 -858z"/><path d="M7631 6204 c-730 -118 -1321 -687 -1471 -1416 -130 -637 85 -1289 568 -1721 228 -205 516 -349 834 -419 91 -20 131 -22 348 -22 218 0 257 2 350 22 235 51 455 145 648 275 l112 76 0 -135 0 -134 340 0 340 0 0 1690 0 1690 -340 0 -340 0 0 -136 0 -136 -22 16 c-248 178 -470 279 -735 337 -132 28 -491 36 -632 13z m527 -694 c556 -136 929 -678 851 -1236 -34 -245 -145 -470 -319 -644 -434 -436 -1123 -438 -1555 -5 -292 293 -402 713 -289 1101 122 424 475 735 910 804 92 14 306 4 402 -20z"/><path d="M0 1610 l0 -340 5120 0 5120 0 0 340 0 340 -5120 0 -5120 0 0 -340z"/></g></svg>