<svg xmlns="http://www.w3.org/2000/svg" width="56" height="56" viewBox="0 0 56 56">
    <g fill="none" fill-rule="evenodd">
        <path d="M0 0h56v56H0z"></path>
        <path fill="#fff" fill-rule="nonzero" d="M17.445 18.762L37.243 38.56l-1.414 1.414-19.799-19.8zM20.263 15.932L40.062 35.73l-1.415 1.414-19.799-19.8z" opacity=".1"></path>
        <path fill="#fff" fill-rule="nonzero" d="M18.859 17.342L38.658 37.14l-1.415 1.414-19.799-19.8z" opacity=".3"></path>
        <path fill="#fff" fill-rule="nonzero" d="M35.83 40L22.39 53.41s-2.12-6.41-3.53-7.78c-1.41-1.37-2.12-.71-3.54-2.12-1.42-1.41-.7-4.95-2.83-5.66-1.33-.45-1.41 0-2.12-.71-1.41-1.41-.7-5-2.83-5.65a3.29 3.29 0 0 0-2.82 0L16 20.17 35.83 40z" opacity=".8"></path>
        <path fill="#fff" fill-rule="nonzero" d="M41.42 30.38c-1.58-3-3.48-8.08-.64-10.92s5.66-2.82 9.9-7.07 3.53-10.6 3.53-10.6-6.36-.71-10.6 3.53c-4.24 4.24-4.25 7.07-7.07 9.9-2.82 2.83-7.89.94-10.92-.64a4 4 0 0 0-4.71.71l-.64.64 19.8 19.8.64-.64a4 4 0 0 0 .71-4.71zm5-20.82c-.79-.78-.47-2.36.7-3.53s2.76-1.49 3.54-.71c.78.78.46 2.37-.71 3.54s-2.73 1.49-3.51.7h-.02zM22.39 53.41l-.7.7-19.8-19.8 2.83-2.82a3.29 3.29 0 0 1 2.82 0c2.13.7 1.42 4.24 2.83 5.65.71.71.79.26 2.12.71 2.13.71 1.42 4.24 2.83 5.66 1.41 1.42 2.12.7 3.54 2.12 1.42 1.42 3.53 7.78 3.53 7.78z" opacity=".3"></path>
    </g>
</svg>