<svg xmlns="http://www.w3.org/2000/svg" width="56" height="56" viewBox="0 0 56 56">
    <g fill="none" fill-rule="evenodd">
        <path d="M0 0h56v56H0z"></path>
        <path fill="#3C4258" fill-rule="nonzero" d="M38 20a13.821 13.821 0 0 0-6 1.35l6.26 10.75a2 2 0 0 1-1.73 3H24.06c.596 7.568 7.115 13.281 14.696 12.88 7.58-.4 13.46-6.77 13.256-14.358C51.807 26.033 45.592 19.99 38 20z" opacity=".3"></path>
        <path fill="#3C4258" fill-rule="nonzero" d="M36.53 35.1h-29a2 2 0 0 1-1.74-3L20.28 7a2 2 0 0 1 3.47 0l14.51 25.1a2 2 0 0 1-1.73 3z" opacity=".8"></path>
    </g>
</svg>