<svg xmlns="http://www.w3.org/2000/svg" viewBox="0 0 105 46"><g style="fill: none; fill-rule: evenodd; stroke: none; stroke-width: 1;"><g><g><polygon points="59 46 105 46 105 0 59 0" style="fill: rgb(52, 60, 164);"></polygon></g><polygon points="7 14 52 14 52 7 7 7" style="fill: rgb(223, 224, 230); fill-opacity: 0.6;"></polygon><polygon points="7 27 39 27 39 20 7 20" style="fill: rgb(223, 224, 230); fill-opacity: 0.6;"></polygon><path d="M80.06,33 L80.06,23.92 L77,23.92 L77,20.213 L80.06,20.213 L80.06,17.1 C80.06,14.835 81.895, 13 84.159,13 L87.359,13 L87.359,16.333 L85.07,16.333 C84.35,16.333 83.767,16.917 83.767,17.636 L83.767,20.213 L87.301,20.213 L86.813,23.92 L83.767,23.92 L83.767,33" style="fill: rgb(255, 255, 255);"></path></g></g></svg>