<svg xmlns="http://www.w3.org/2000/svg" viewBox="0 0 115 46"><g style="fill: none; fill-rule: evenodd; stroke: none; stroke-width: 1;"><g><g><polygon points="69 46 115 46 115 0 69 0" style="fill: rgb(1, 154, 248);"></polygon></g><polygon points="7 14 62 14 62 7 7 7" style="fill: rgb(223, 224, 230); fill-opacity: 0.6;"></polygon><polygon points="7 27 49 27 49 20 7 20" style="fill: rgb(223, 224, 230); fill-opacity: 0.6;"></polygon><path d="M81.0014,31.3209 C83.1744,32.6989 85.7514,33.4959 88.5144,33.4959 C96.2764,33.4959 102.5684, 27.2039 102.5684,19.4429 C102.5684,19.2489 102.5644,19.0559 102.5574,18.8649 C102.8374,18.6439 104.5744,17.2519 105.0004,16.3569 C105.0004,16.3569 103.5894,16.9429 102.2094,17.0809 C102.2064, 17.0809 102.2034,17.0819 102.2004,17.0819 C102.2004,17.0819 102.2034,17.0799 102.2084,17.0769 C102.3354,16.9919 104.1134,15.7819 104.3534,14.3399 C104.3534,14.3399 103.3564,14.8719 101.9604, 15.3379 C101.7294,15.4149 101.4874,15.4909 101.2374,15.5609 C100.3374,14.5999 99.0584,13.9999 97.6374,13.9999 C94.9134,13.9999 92.7064,16.2069 92.7064,18.9289 C92.7064,19.3129 92.7504, 19.6869 92.8334,20.0459 C92.4534,20.0309 86.6554,19.7049 82.7114,14.9289 C82.7114,14.9289 80.3554,18.1469 84.1164,21.4559 C84.1164,21.4559 82.9734,21.4109 81.9864,20.8209 C81.9864, 20.8209 81.6244,24.7189 85.8844,25.7159 C85.8844,25.7159 85.0464,26.0329 83.7084,25.8069 C83.7084,25.8069 84.4564,28.9569 88.2414,29.2509 C88.2414,29.2509 85.2484,31.9549 81.0004, 31.3209 L81.0014,31.3209 Z" style="fill: rgb(255, 255, 255);"></path></g></g></svg>