<svg xmlns="http://www.w3.org/2000/svg" viewBox="0 0 60 100"><defs><rect x="0" y="0" width="60" height="100" rx="1"></rect><polygon points="0 24.5061 24.5 24.5061 24.5 0.0001 0 0.0001"></polygon></defs><g style="fill: none; fill-rule: evenodd; stroke: none; stroke-width: 1;"><g><g><polygon points="0 54 60 54 60 0 0 0" style="fill: rgb(169, 0, 58);"></polygon></g><polygon points="6 67 54 67 54 60 6 60" style="fill: rgb(223, 224, 230); fill-opacity: 0.6;"></polygon><polygon points="6 80 54 80 54 73 6 73" style="fill: rgb(223, 224, 230); fill-opacity: 0.6;"></polygon><polygon points="6 93 40 93 40 86 6 86" style="fill: rgb(223, 224, 230); fill-opacity: 0.6;"></polygon><g transform="translate(18.000000, 16.000000)"><path d="M7.365,23.447 C1.963,21.19 -1.553,14.757 0.684,8.224 C2.896,1.761 10.051,-1.624 16.494, 0.769 C22.956,3.168 26.152,10.298 23.647,16.69 C21.054,23.307 14.101,25.647 8.888, 23.997 C9.278,23.034 9.721,22.085 10.046,21.096 C10.372,20.103 10.581,19.071 10.825, 18.115 C11.036,18.293 11.247,18.481 11.469,18.656 C12.621,19.566 13.924,19.654 15.289, 19.326 C16.74,18.977 17.887,18.155 18.736,16.946 C20.172,14.901 20.678,12.587 20.331, 10.152 C19.972,7.634 18.482,5.812 16.145,4.895 C12.623,3.513 9.285,3.978 6.393,6.511 C4.17, 8.46 3.422,11.763 4.492,14.335 C4.863,15.226 5.448,15.926 6.335,16.346 C6.784,16.559 6.975, 16.472 7.105,16.003 C7.115,15.968 7.126,15.934 7.139,15.9 C7.388,15.243 7.33,14.703 6.887, 14.07 C6.08,12.914 6.224,11.577 6.613,10.296 C7.352,7.867 9.522,6.245 12.068,6.222 C12.75, 6.216 13.452,6.274 14.113,6.435 C16.077,6.915 17.345,8.434 17.472,10.448 C17.574, 12.063 17.322,13.632 16.62,15.107 C16.272,15.838 15.813,16.487 15.13,16.946 C14.488, 17.378 13.787,17.552 13.025,17.353 C11.976,17.079 11.381,16.122 11.646,15.072 C11.921, 13.984 12.277,12.916 12.547,11.827 C12.661,11.366 12.721,10.866 12.674,10.396 C12.547, 9.118 11.339,8.522 10.21,9.146 C9.419,9.583 9.038,10.314 8.861,11.159 C8.68,12.03 8.768, 12.889 9.051,13.733 C9.108,13.903 9.116,14.112 9.076,14.287 C8.563,16.524 8.015, 18.753 7.529,20.996 C7.387,21.65 7.413,22.341 7.366,23.015 C7.357,23.145 7.365, 23.275 7.365,23.447" style="fill: rgb(255, 255, 255);"></path></g></g></g></svg>