<svg xmlns="http://www.w3.org/2000/svg" viewBox="0 0 90 42"><defs><polygon points="0.1835 21 29.395 21 29.395 0.6583 0.1835 0.6583 0.1835 21"></polygon></defs><g style="fill: none; fill-rule: evenodd; stroke: none; stroke-width: 1;"><g><rect x="0" y="0" width="90" height="42" rx="1" style="fill: rgb(255, 255, 255);"></rect><g transform="translate(20.000000, 10.000000)"><g transform="translate(20.000000, 0.341800)"><path d="M27.2075,12.6033 L23.6785,12.6033 L23.6785,14.3173 C23.6785,15.2243 23.9815, 15.6783 24.5855,15.6783 C25.0185,15.6783 25.2825,15.4423 25.3745,14.9683 C25.4005, 14.8373 25.4135,14.4353 25.4135,13.7653 L27.2075,13.7653 L27.2075,14.0223 C27.2075, 14.6653 27.1935,15.0463 27.1675,15.1653 C27.1285,15.5203 26.9905,15.8753 26.7535, 16.2293 C26.2805,16.9253 25.5705,17.2743 24.6255,17.2743 C23.7175,17.2743 23.0085, 16.9383 22.4955,16.2683 C22.1145,15.7833 21.9255,15.0213 21.9255,13.9833 L21.9255, 10.5723 C21.9255,9.5343 22.1075,8.7723 22.4765,8.2863 C22.9895,7.6163 23.6915, 7.2813 24.5855,7.2813 C25.4665,7.2813 26.1635,7.6163 26.6745,8.2863 C27.0305, 8.7723 27.2075,9.5343 27.2075,10.5723 L27.2075,12.6033 Z M20.5455,14.2193 C20.5455, 15.1783 20.4865,15.8353 20.3675,16.1903 C20.1445,16.9123 19.6785,17.2743 18.9685, 17.2743 C18.3375,17.2743 17.7265,16.9123 17.1345,16.1903 L17.1345,17.1373 L15.3815, 17.1373 L15.3815,4.0683 L17.1345,4.0683 L17.1345,8.3463 C17.7005,7.6363 18.3115, 7.2813 18.9685,7.2813 C19.6785,7.2813 20.1445,7.6503 20.3675,8.3853 C20.4865, 8.7273 20.5455,9.3773 20.5455,10.3363 L20.5455,14.2193 Z M13.8435,17.1363 L12.0895, 17.1363 L12.0895,16.0713 C11.3795,16.8733 10.7085,17.2743 10.0795,17.2743 C9.4745, 17.2743 9.0925,17.0313 8.9355,16.5453 C8.8305,16.2293 8.7775,15.7503 8.7775, 15.1063 L8.7775,7.3993 L10.5315,7.3993 L10.5315,14.5743 C10.5315,14.9943 10.5385, 15.2243 10.5515,15.2633 C10.5905,15.5403 10.7285,15.6783 10.9665,15.6783 C11.3205, 15.6783 11.6945,15.4013 12.0895,14.8503 L12.0895,7.3993 L13.8435,7.3993 L13.8435, 17.1363 Z M8.5215,5.9203 L6.4125,5.9203 L6.4125,17.1363 L4.4415,17.1363 L4.4415, 5.9203 L2.3725,5.9203 L2.3725,4.0683 L8.5215,4.0683 L8.5215,5.9203 Z M28.8825, 3.9303 C28.7125,3.1543 28.3345,2.5043 27.7495,1.9783 C27.1655,1.4533 26.4905, 1.1453 25.7285,1.0533 C23.3105,0.7893 19.6655,0.6583 14.7885,0.6583 C9.9135, 0.6583 6.2745,0.7893 3.8695,1.0533 C3.0945,1.1453 2.4175,1.4533 1.8395,1.9783 C1.2605, 2.5043 0.8805,3.1553 0.6955,3.9303 C0.3545,5.4543 0.1835,7.7543 0.1835,10.8293 C0.1835, 13.9563 0.3545,16.2553 0.6955,17.7273 C0.8675,18.5023 1.2445,19.1533 1.8285, 19.6793 C2.4135,20.2053 3.0875,20.5073 3.8505,20.5853 C6.2685,20.8613 9.9145, 21.0003 14.7905,21.0003 C19.6635,21.0003 23.3115,20.8613 25.7285,20.5853 C26.4905, 20.5073 27.1605,20.2053 27.7395,19.6793 C28.3175,19.1533 28.6985,18.5023 28.8825, 17.7273 C29.2235,16.2033 29.3955,13.9043 29.3955,10.8293 C29.3955,7.7023 29.2235, 5.4023 28.8825,3.9303 L28.8825,3.9303 Z" style="fill: rgb(208, 2, 27);"></path></g><path d="M38.0218,9.2194 C37.7198,9.2194 37.4238,9.3644 37.1348,9.6544 L37.1348,15.5864 C37.4238, 15.8744 37.7198,16.0204 38.0218,16.0204 C38.5338,16.0204 38.7908,15.5794 38.7908, 14.6994 L38.7908,10.5404 C38.7908,9.6604 38.5348,9.2194 38.0218,9.2194" style="fill: rgb(208, 2, 27);"></path><path d="M44.5663,9.2194 C43.9743,9.2194 43.6793,9.6674 43.6793,10.5604 L43.6793,11.4664 L45.4533, 11.4664 L45.4533,10.5604 C45.4533,9.6654 45.1573,9.2194 44.5663,9.2194" style="fill: rgb(208, 2, 27);"></path><path d="M2.4831,12.4325 L2.4831,17.7745 L4.4541,17.7745 L4.4541,12.4325 L6.8381,4.5675 L4.8281, 4.5675 L3.4881,9.7515 L2.0881,4.5675 L0.0001,4.5675 C0.3671,5.6715 0.7951,6.8995 1.2801, 8.2525 C1.8981,10.0665 2.2991,11.4605 2.4831,12.4325" style="fill: rgb(0, 0, 0);"></path><path d="M8.6329,10.7762 C8.6329,9.8692 8.9149,9.4162 9.4799,9.4162 C10.0459,9.4162 10.3279, 9.8692 10.3279,10.7762 L10.3279,14.9152 C10.3279,15.8362 10.0459,16.2952 9.4799, 16.2952 C8.9149,16.2952 8.6329,15.8362 8.6329,14.9152 L8.6329,10.7762 Z M9.4799, 17.9112 C10.3869,17.9112 11.0829,17.5772 11.5699,16.9062 C11.9369,16.4202 12.1209, 15.6442 12.1209,14.5802 L12.1209,11.1302 C12.1209,10.0802 11.9369,9.3112 11.5699, 8.8252 C11.0829,8.1552 10.3869,7.8192 9.4799,7.8192 C8.5999,7.8192 7.9099,8.1552 7.4099, 8.8252 C7.0429,9.3112 6.8589,10.0802 6.8589,11.1302 L6.8589,14.5802 C6.8589,15.6312 7.0429, 16.4072 7.4099,16.9062 C7.9099,17.5772 8.5999,17.9112 9.4799,17.9112 L9.4799,17.9112 Z" style="fill: rgb(0, 0, 0);"></path><path d="M14.9006,17.9113 C15.5576,17.9113 16.2346,17.5033 16.9296,16.6903 L16.9296, 17.7733 L18.7246,17.7733 L18.7246,7.9383 L16.9296,7.9383 L16.9296,15.4473 C16.5366, 16.0133 16.1626,16.2953 15.8066,16.2953 C15.5706,16.2953 15.4326,16.1513 15.3936, 15.8623 C15.3796,15.8363 15.3736,15.6053 15.3736,15.1713 L15.3736,7.9383 L13.5796, 7.9383 L13.5796,15.7043 C13.5796,16.3743 13.6316,16.8673 13.7376,17.1823 C13.9086, 17.6693 14.2956,17.9113 14.9006,17.9113" style="fill: rgb(0, 0, 0);"></path></g></g></g></svg>