<svg xmlns="http://www.w3.org/2000/svg" viewBox="0 0 110 60"><g style="fill: none; fill-rule: evenodd; stroke: none; stroke-width: 1;"><g><g><polygon points="64 60 110 60 110 0 64 0" style="fill: rgb(1, 154, 248);"></polygon></g><path d="M75.001,37.321 C77.174,38.699 79.751,39.496 82.514,39.496 C90.276,39.496 96.568,33.204 96.568,25.443 C96.568,25.249 96.564,25.056 96.557,24.865 C96.837,24.644 98.574,23.252 99,22.357 C99,22.357 97.589,22.943 96.209,23.081 C96.206,23.081 96.203,23.082 96.2,23.082 C96.2,23.082 96.203,23.08 96.208,23.077 C96.335,22.992 98.113,21.782 98.353,20.34 C98.353,20.34 97.356, 20.872 95.96,21.338 C95.729,21.415 95.487,21.491 95.237,21.561 C94.337,20.6 93.058,20 91.637, 20 C88.913,20 86.706,22.207 86.706,24.929 C86.706,25.313 86.75,25.687 86.833,26.046 C86.453, 26.031 80.655,25.705 76.711,20.929 C76.711,20.929 74.355,24.147 78.116,27.456 C78.116,27.456 76.973,27.411 75.986,26.821 C75.986,26.821 75.624,30.719 79.884,31.716 C79.884,31.716 79.046, 32.033 77.708,31.807 C77.708,31.807 78.456,34.957 82.241,35.251 C82.241,35.251 79.248,37.955 75,37.321 L75.001,37.321 Z" style="fill: rgb(255, 255, 255);"></path><polygon points="7 14 57 14 57 7 7 7" style="fill: rgb(223, 224, 230); fill-opacity: 0.6;"></polygon><polygon points="7 27 57 27 57 20 7 20" style="fill: rgb(223, 224, 230); fill-opacity: 0.6;"></polygon><polygon points="7 53 57 53 57 33 7 33" style="fill: rgb(223, 224, 230); fill-opacity: 0.6;"></polygon></g></g></svg>