<svg xmlns="http://www.w3.org/2000/svg" viewBox="0 0 94 60"><defs><linearGradient id="hd-slide-grad" x1="2.312%" x2="99.232%" y1="2.719%" y2="99.639%"><stop offset="0%" stop-color="#2D50DC"></stop><stop offset="98.27%" stop-color="#9B29E6"></stop></linearGradient></defs><g fill="none"><path fill="#9FB1FF" d="M1 0h92c.6 0 1 .4 1 1v58c0 .6-.4 1-1 1H1c-.6 0-1-.4-1-1V1c0-.6.4-1 1-1z"></path><path fill="#6079E1" d="M74 50h6v6h-6zm10 0h6v6h-6zM4 50h6v6H4zm10 0h6v6h-6zm10 0h6v6h-6zm10 0h6v6h-6zm10 0h6v6h-6zm10 0h6v6h-6zm10 0h6v6h-6z" opacity=".5"></path><path fill="#7F95F0" d="M84 50h6v6h-6z"></path><path fill="url(#hd-slide-grad)" d="M1 0h92c.6 0 1 .4 1 1v45H0V1c0-.6.4-1 1-1z"></path><g fill="#FFF"><path d="M35 14h24c.6 0 1 .4 1 1v16c0 .6-.4 1-1 1H35c-.6 0-1-.4-1-1V15c0-.6.4-1 1-1zm9.5 8h-2v-2H41v6h1.5v-2.5h2V26H46v-6h-1.5v2zm6.5-2h-3.5v6H51c.8 0 1.5-.7 1.5-1.5v-3c0-.8-.7-1.5-1.5-1.5zm-27-4h3v14h-3zm5-1h3v16h-3zm33 0h3v16h-3zm5 1h3v14h-3z"></path><path d="M51 24.5h-2v-3h2z"></path></g></g></svg>