<svg xmlns="http://www.w3.org/2000/svg" x="0px" y="0px" viewBox="0 0 120 38"><rect width="82" height="38" style="fill-rule: evenodd; clip-rule: evenodd; fill: rgb(255, 255, 255);"></rect><path d="M10,9h62v7H10V9z M10,22h35v7H10V22z" style="fill-rule: evenodd; clip-rule: evenodd; fill: rgb(223, 224, 230);"></path><linearGradient id="soundCloundGradient" gradientUnits="userSpaceOnUse" x1="-324.7105" y1="22.9737" x2="-324.7105" y2="21.9737" gradientTransform="matrix(38 0 0 -38 12440 873)"><stop offset="0" stop-color="#FF8800"></stop><stop offset="1" stop-color="#FF3300"></stop></linearGradient><rect x="82" width="38" height="38" style="fill-rule: evenodd; clip-rule: evenodd; fill: url(&quot;#soundCloundGradient&quot;);"></rect><path d="M110.9,25c0,0,3.1,0,3.1-3.1s-3.1-3.1-3.1-3.1l-1.2,0.1c0,0-0.4-5-5.4-5c0,0-2.7,0-3.7,2.1c0,0-5.2-2.4-6.6,3 c0,0-5-0.7-5,3.4c0,0,0.2,2.6,2.7,2.6S110.9,25,110.9,25z" style="fill: rgb(255, 255, 255);"></path></svg>