<svg xmlns="http://www.w3.org/2000/svg" x="0px" y="0px" viewBox="0 0 104 38"><rect width="66" height="38" style="fill-rule: evenodd; fill: rgb(255, 255, 255);"></rect><rect x="66" width="38" height="38" style="fill-rule: evenodd; clip-rule: evenodd; fill: rgb(235, 109, 32);"></rect><path d="M90,22.3c0,0.4-0.4,3.9-0.4,4.7c-3.1-0.2-5.7-0.2-9.6,0v-0.9c1.2-0.3,1.6-0.3,1.6-1.3 c0-2.6,0.1-8.7,0-11.5c0-1-0.3-1-1.6-1.3v-0.9c1.9,0.1,6.7,0.3,9.5-0.1c-0.1,1.4-0.2,4.5-0.2,4.5h-0.6c-0.3-1.5-0.5-3.2-1.4-3.2 h-3.6c-0.3,0-0.3,0.1-0.3,0.3v5.8c1.5,0,2.3-0.1,2.3-0.1c0.8,0,0.7-0.3,1.1-2.3h0.7c-0.1,3.6-0.1,2.2,0,5.7h-0.7 c-0.2-1.4-0.2-2.2-1-2.2c0,0-0.6-0.1-2.3-0.1v5c0,0.9,0.4,1.4,1.2,1.4h2.3c1.7,0,1.7-0.9,2.6-3.6L90,22.3L90,22.3z" style="fill: rgb(255, 255, 255);"></path><path d="M10,9h46v7H10V9z M10,22h25v7H10V22z" style="fill-rule: evenodd; clip-rule: evenodd; fill: rgb(223, 224, 230);"></path></svg>