<svg xmlns="http://www.w3.org/2000/svg" x="0px" y="0px" viewBox="0 0 104 74"><g><rect width="35" height="74" style="fill-rule: evenodd; clip-rule: evenodd; fill: rgb(255, 167, 38);"></rect><polygon points="17,51 3.9,60.2 17.2,67" style="fill-rule: evenodd; clip-rule: evenodd; fill: rgb(255, 255, 255);"></polygon><polygon points="20.3,8.9 23.4,20.5 31.6,12.9" style="fill-rule: evenodd; clip-rule: evenodd; fill: rgb(255, 255, 255);"></polygon><g><path d="M35,44.6v-3c-5,0.5-9,4.8-9,10s4,9.5,9,10v-3c-3.4-0.5-6-3.4-6-6.9S31.6,45.1,35,44.6z" style="fill: rgb(255, 255, 255);"></path></g><g><path d="M0.2,4.8c-0.1,0-0.2,0-0.2,0v3h0.2c6.1,0,11,4.9,11,11s-4.9,11-11,11H0v3c0.1,0,0.2,0,0.2,0 c7.7,0,14-6.3,14-14S8,4.8,0.2,4.8z" style="fill: rgb(255, 255, 255);"></path></g><circle cx="18" cy="36.5" r="3.5" style="fill: rgb(255, 255, 255);"></circle></g><g transform="translate(50.000000, 21.000000)"><g transform="translate(0.000000, 5.000000)"><rect x="7" y="9" width="26" height="6" style="fill-rule: evenodd; clip-rule: evenodd; fill: rgb(223, 224, 230);"></rect><rect x="-1" y="1" width="42" height="4" style="fill-rule: evenodd; clip-rule: evenodd; fill: rgb(223, 224, 230);"></rect><rect x="-1" y="19" width="42" height="4" style="fill-rule: evenodd; clip-rule: evenodd; fill: rgb(223, 224, 230);"></rect></g></g></svg>