<svg xmlns="http://www.w3.org/2000/svg" x="0px" y="0px" viewBox="0 0 84 84"><path d="M82,84H2c-1.1,0-2-0.9-2-2V2c0-1.1,0.9-2,2-2h80c1.1,0,2,0.9,2,2v80C84,83.1,83.1,84,82,84z" style="fill-rule: evenodd; clip-rule: evenodd; fill: rgb(85, 207, 207);"></path><path d="M66,64H18c-2.2,0-4-1.8-4-4V20c0-2.2,1.8-4,4-4h48c2.2,0,4,1.8,4,4v40C70,62.2,68.2,64,66,64z" style="fill-rule: evenodd; clip-rule: evenodd; fill: rgb(255, 255, 255);"></path><polygon points="31.6,73 54,61.8 31.8,61.8 " style="fill-rule: evenodd; clip-rule: evenodd; fill: rgb(255, 255, 255);"></polygon><polygon points="21,26 63,26 63,22 21,22 " style="fill-rule: evenodd; clip-rule: evenodd; fill: rgb(223, 224, 230);"></polygon><polygon points="21,34 63,34 63,30 21,30 " style="fill-rule: evenodd; clip-rule: evenodd; fill: rgb(223, 224, 230);"></polygon><g><g><path d="M49.6,40.4c-0.9-0.5-1.9-0.8-2.9-0.8c-1.9,0-3.6,0.9-4.7,2.2c-1.1-1.3-2.8-2.2-4.7-2.2 c-1.1,0-2.1,0.3-2.9,0.8c-1.9,1-3.1,3-3.1,5.3c0,0.7,0.1,1.3,0.3,1.9c1,4.7,10.5,10.6,10.5,10.6s9.4-5.9,10.5-10.6 c0.2-0.6,0.3-1.2,0.3-1.9C52.8,43.4,51.5,41.4,49.6,40.4z" style="fill: rgb(255, 199, 199);"></path></g></g></svg>