<svg xmlns="http://www.w3.org/2000/svg" x="0px" y="0px" viewBox="0 0 84 84"><rect width="84" height="84" style="fill-rule: evenodd; clip-rule: evenodd; fill: rgb(255, 255, 255);"></rect><g transform="translate(18.000000, 18.000000)"><path d="M48,24c0,13.2-10.8,24-24,24S0,37.2,0,24S10.8,0,24,0c6.8,0,13,2.9,17.4,7.5c1.3,1.4,2.5,2.9,3.4,4.6 c0.1,0.1,0.1,0.2,0.1,0.2c1,1.8,1.8,3.7,2.3,5.7S48,22,48,24z" style="fill-rule: evenodd; clip-rule: evenodd; fill: rgb(239, 83, 80);"></path><path d="M47.2,18L25.4,39.9c-0.6,0.6-1.3,0.9-2.1,0.9s-1.5-0.3-2.1-0.9l-9.6-9.6c-0.6-0.6-0.9-1.4-0.9-2.1 s0.3-1.5,0.9-2.1c1.1-1.1,2.9-1.2,4-0.2l3.7,3.7l4,4l21.5-21.5c0.1,0.1,0.1,0.2,0.1,0.2C46,14.1,46.7,16,47.2,18z" style="opacity: 0.2972;"></path><path d="M45,12.3L21.4,35.9c-0.6,0.6-1.3,0.9-2.1,0.9s-1.5-0.3-2.1-0.9l-9.6-9.6C7,25.7,6.7,25,6.7,24.2 s0.3-1.5,0.9-2.1c1.2-1.2,3.1-1.2,4.2,0l3.8,3.8l3.7,3.7L41.4,7.5c1.3,1.4,2.5,2.9,3.4,4.6C44.9,12.2,44.9,12.2,45,12.3z" style="fill: rgb(255, 255, 255);"></path></g></svg>