<svg xmlns="http://www.w3.org/2000/svg" x="0px" y="0px" viewBox="0 0 84 84">
    <g>
        <linearGradient id="albumCoverSVGID_1_" gradientUnits="userSpaceOnUse" x1="9.094947e-13" y1="84" x2="84" y2="-2.842171e-14">
            <stop offset="0" style="stop-color: rgb(224, 54, 153);"></stop>
            <stop offset="0.9981" style="stop-color: rgb(38, 150, 255);"></stop>
        </linearGradient>
        <rect width="84" height="84" style="fill-rule: evenodd; clip-rule: evenodd; fill: url(&quot;#albumCoverSVGID_1_&quot;);"></rect>
    </g>
    <linearGradient id="albumCoverSVGID_2_" gradientUnits="userSpaceOnUse" x1="56.7248" y1="57.0748" x2="-0.175" y2="0.175">
        <stop offset="0.1832" style="stop-color: rgb(255, 253, 251); stop-opacity: 0;"></stop>
        <stop offset="1" style="stop-color: rgb(141, 255, 231);"></stop>
    </linearGradient>
    <path d="M83.3,0c0,0-2.8,71-82.8,83.5c-0.1,0.2-0.2,0.3-0.3,0.5H0V0H83.3z" style="fill-rule: evenodd; clip-rule: evenodd; fill: url(&quot;#albumCoverSVGID_2_&quot;);"></path>
    <path d="M73.5,40.4V61h-0.1c0,0.3,0.1,0.5,0.1,0.9c0,3.8-3.5,7-7.9,7s-7.9-3.2-7.9-7s3.5-7,7.9-7 c2.5,0,4.7,1,6.1,2.6v-16l-21.9,8.3v19.1c0,3.8-3.5,7-7.9,7s-7.9-3.2-7.9-7s3.5-7,7.9-7c2.5,0,4.7,1,6.1,2.6V47.8v-4.6 c0-1.3,1-2.8,2.3-3.4l20.8-8.5c1.3-0.5,2.3,0.1,2.3,1.4C73.5,32.7,73.5,40.4,73.5,40.4z" style="fill-rule: evenodd; clip-rule: evenodd; fill: rgb(255, 255, 255);"></path>
</svg>