<svg xmlns="http://www.w3.org/2000/svg" x="0px" y="0px" viewBox="0 0 56 84"><path d="M1,0h54c0.6,0,1,0.4,1,1v82c0,0.6-0.4,1-1,1H1c-0.6,0-1-0.4-1-1V1C0,0.4,0.4,0,1,0z" style="fill-rule: evenodd; clip-rule: evenodd; fill: rgb(255, 167, 38);"></path><path d="M1,0h7v84H1c-0.6,0-1-0.4-1-1V1C0,0.4,0.4,0,1,0z" style="fill-rule: evenodd; clip-rule: evenodd; fill: rgb(255, 186, 87);"></path><polygon points="38,0 49,0 49,14 43.5,9.8 38,14 " style="fill-rule: evenodd; clip-rule: evenodd; fill: rgb(222, 61, 54);"></polygon><g><path d="M47,51H15c0-1.1-0.9-2-2-2V35c1.1,0,2-0.9,2-2h32c0,1.1,0.9,2,2,2v14C47.9,49,47,49.9,47,51z" style="fill-rule: evenodd; clip-rule: evenodd; fill: rgb(255, 255, 255);"></path><g><path d="M19,46v-2.9h24V46H19z" style="fill-rule: evenodd; clip-rule: evenodd; fill: rgb(255, 167, 38);"></path><path d="M19,40.9V38h24v2.9H19z" style="fill-rule: evenodd; clip-rule: evenodd; fill: rgb(255, 167, 38);"></path></g></g></svg>