<svg xmlns="http://www.w3.org/2000/svg" x="0px" y="0px" viewBox="0 0 60 84"><rect width="60" height="84" style="fill-rule: evenodd; clip-rule: evenodd; fill: rgb(255, 255, 255);"></rect><g transform="translate(10.000000, 29.000000)"><polygon points="12,15 40,15 40,12 12,12" style="fill-rule: evenodd; clip-rule: evenodd; fill: rgb(223, 224, 230);"></polygon><polygon points="0,15 9,15 9,12 0,12" style="fill-rule: evenodd; clip-rule: evenodd; fill: rgb(223, 224, 230);"></polygon><polygon points="3,12 3,21 6,21 6,12" style="fill-rule: evenodd; clip-rule: evenodd; fill: rgb(223, 224, 230);"></polygon><polygon points="12,21 40,21 40,18 12,18" style="fill-rule: evenodd; clip-rule: evenodd; fill: rgb(223, 224, 230);"></polygon><polygon points="0,27 40,27 40,24 0,24" style="fill-rule: evenodd; clip-rule: evenodd; fill: rgb(223, 224, 230);"></polygon><polygon points="0,33 40,33 40,30 0,30" style="fill-rule: evenodd; clip-rule: evenodd; fill: rgb(223, 224, 230);"></polygon><polygon points="0,39 17,39 17,36 0,36" style="fill-rule: evenodd; clip-rule: evenodd; fill: rgb(223, 224, 230);"></polygon><polygon points="0,6 40,6 40,0 0,0" style="fill-rule: evenodd; clip-rule: evenodd; fill: rgb(223, 224, 230);"></polygon></g><rect y="79" width="60" height="5" style="fill-rule: evenodd; clip-rule: evenodd; fill: rgb(239, 83, 80);"></rect><g transform="translate(4.000000, 4.000000)"><path d="M17,8.5c0,4.7-3.8,8.5-8.5,8.5S0,13.2,0,8.5S3.8,0,8.5,0c2.4,0,4.5,1,6.1,2.5c0.5,0.5,0.9,1.1,1.3,1.7 c0,0,0,0,0,0.1c0.4,0.7,0.7,1.4,0.9,2.2C16.9,7.2,17,7.8,17,8.5z" style="fill-rule: evenodd; clip-rule: evenodd; fill: rgb(239, 83, 80);"></path><path d="M16.8,6.5l-7.7,7.7c-0.3,0.2-0.5,0.3-0.8,0.3s-0.5-0.1-0.7-0.3L6.4,13l-2.2-2.2C4,10.6,3.9,10.3,3.9,10 S4,9.5,4.2,9.2c0.3-0.3,0.7-0.4,1-0.2c0.2,0,0.3,0.1,0.5,0.2l2.6,2.6l7.5-7.5c0,0,0,0,0,0.1C16.3,5,16.6,5.7,16.8,6.5z" style="opacity: 0.3014;"></path><path d="M15.9,4.3l-8.5,8.5c-0.1,0.2-0.3,0.3-0.6,0.3c-0.1,0-0.3,0-0.4-0.1c-0.1,0-0.3-0.1-0.4-0.2L2.6,9.4 C2.4,9.1,2.3,8.9,2.3,8.6c0-0.3,0.1-0.5,0.3-0.8c0.4-0.4,1.1-0.4,1.5,0l2.6,2.6l0.1-0.1l7.8-7.8C15.1,3,15.5,3.6,15.9,4.3L15.9,4.3z" style="fill: rgb(255, 255, 255);"></path></g></svg>